<?xml version="1.0" encoding="utf-8"?>
<!-- Generator: Adobe Illustrator 16.0.0, SVG Export Plug-In . SVG Version: 6.00 Build 0)  -->
<!DOCTYPE svg PUBLIC "-//W3C//DTD SVG 1.1//EN" "http://www.w3.org/Graphics/SVG/1.1/DTD/svg11.dtd">
<svg version="1.1" id="Layer_1" xmlns="http://www.w3.org/2000/svg" xmlns:xlink="http://www.w3.org/1999/xlink" x="0px" y="0px"
	 width="40px" height="79px" viewBox="231.5 211 40 79" enable-background="new 231.5 211 40 79" xml:space="preserve">
<g>
	<path d="M234.71,265.162l8.507-0.662c0.125,1.701,1.007,3.136,2.646,4.301c1.638,1.167,3.686,1.749,6.144,1.749
		c2.457,0,4.457-0.582,6.002-1.749c1.543-1.165,2.315-2.693,2.315-4.584s-0.789-3.465-2.363-4.726
		c-1.575-1.26-3.513-2.253-5.813-2.978c-2.301-0.724-4.616-1.527-6.947-2.41c-2.332-0.882-4.38-2.269-6.144-4.159
		c-2.207-2.268-3.308-5.009-3.308-8.223s1.276-6.191,3.828-8.932c2.552-2.741,6.694-4.112,12.429-4.112
		c2.016,0,3.906,0.236,5.671,0.709c1.764,0.472,3.025,0.93,3.781,1.371l3.12,1.89l-2.552,7.75c-1.766-1.513-6.209-3.497-9.358-3.497
		c-3.152,0-5.215,0.505-6.191,1.512c-0.978,1.009-1.465,2.174-1.465,3.497c0,1.701,0.929,3.057,2.788,4.064
		c1.858,1.008,3.953,1.907,6.285,2.694c2.331,0.788,4.646,1.717,6.947,2.788c2.3,1.072,4.254,2.71,5.86,4.915
		c1.606,2.206,2.41,5.089,2.41,8.648c0,3.561-1.435,6.711-4.301,9.452c-2.868,2.74-7.058,4.111-12.57,4.111
		c-5.515,0-9.815-1.293-12.902-3.876C236.442,272.125,234.836,268.942,234.71,265.162z"/>
</g>
<g>
	<path d="M245.06,286.75l-3.053-6.662c4.132-0.679,6.199-3.146,6.199-7.401v-7.031c0,0,0-12.151,0-16.099v-15.821
		c0-3.392,0.847-6.368,2.544-8.928c1.695-2.559,4.209-4.117,7.54-4.673l2.961,6.662c-3.146,0.864-4.719,3.085-4.719,6.661v39.507
		c0,3.946-0.864,7.046-2.591,9.299C252.215,284.514,249.253,286.01,245.06,286.75z"/>
</g>
<g>
	<path fill="#7DB64B" d="M233.696,259.299l8.506-0.662c0.125,1.701,1.007,3.135,2.646,4.301c1.638,1.166,3.686,1.748,6.143,1.748
		c2.458,0,4.457-0.582,6.002-1.748c1.544-1.166,2.316-2.694,2.316-4.584c0-1.891-0.789-3.465-2.363-4.727
		c-1.576-1.26-3.514-2.252-5.813-2.978c-2.301-0.723-4.617-1.526-6.947-2.41c-2.332-0.882-4.38-2.269-6.144-4.159
		c-2.207-2.269-3.308-5.01-3.308-8.223c0-3.214,1.276-6.191,3.828-8.932c2.552-2.741,6.694-4.111,12.429-4.111
		c2.016,0,3.905,0.236,5.671,0.709c1.764,0.473,3.024,0.93,3.78,1.37l3.12,1.891l-2.552,7.75c-1.765-1.512-6.208-3.497-9.358-3.497
		c-3.151,0-5.214,0.505-6.19,1.512c-0.978,1.009-1.465,2.174-1.465,3.497c0,1.701,0.929,3.057,2.789,4.064
		c1.857,1.009,3.953,1.906,6.285,2.694c2.33,0.789,4.646,1.717,6.947,2.788c2.299,1.072,4.253,2.71,5.859,4.915
		c1.607,2.207,2.41,5.09,2.41,8.648c0,3.561-1.434,6.711-4.3,9.452c-2.868,2.741-7.058,4.111-12.571,4.111
		c-5.514,0-9.815-1.292-12.901-3.875C235.428,266.262,233.822,263.079,233.696,259.299z"/>
</g>
<g>
	<path fill="#7DB64B" d="M244.045,280.887l-3.053-6.662c4.132-0.68,6.199-3.146,6.199-7.402v-7.031c0,0,0-12.15,0-16.099v-15.821
		c0-3.392,0.847-6.368,2.544-8.928c1.696-2.559,4.21-4.118,7.541-4.672l2.96,6.661c-3.146,0.865-4.718,3.085-4.718,6.662v39.507
		c0,3.946-0.865,7.046-2.591,9.298C251.2,278.649,248.239,280.146,244.045,280.887z"/>
</g>
</svg>
