<?xml version="1.0" encoding="utf-8"?>
<!-- Generator: Adobe Illustrator 16.0.0, SVG Export Plug-In . SVG Version: 6.00 Build 0)  -->
<!DOCTYPE svg PUBLIC "-//W3C//DTD SVG 1.1//EN" "http://www.w3.org/Graphics/SVG/1.1/DTD/svg11.dtd">
<svg version="1.1" id="Layer_1" xmlns="http://www.w3.org/2000/svg" xmlns:xlink="http://www.w3.org/1999/xlink" x="0px" y="0px"
	 width="300px" height="300px" viewBox="0 0 300 300" enable-background="new 0 0 300 300" xml:space="preserve">
<path fill="#E96025" d="M157.195,8.185C154.594,14.528,100,80.888,100,112.7c0,31.82,33.939,44.251,14.119,59.181
	c-18.844,14.164-32.72-17.368-36.205-22.985c-12.406,55.086-3.727,85.711,23.109,112.547
	c56.601,56.601,140.813,3.058,140.813-50.695c0-23.305-10.359-36.156-10.359-36.156s-13.986,43.925-36.721,26.831
	c-22.719-17.109,15.557-28.933,15.557-63.558s-17.805-55.258-17.805-55.258s-15.334,49.943-38.061,32.841
	s16.904-39.591,16.904-57.888C171.352,39.255,157.195,8.185,157.195,8.185z"/>
</svg>
