<svg xmlns="http://www.w3.org/2000/svg" width="1520" height="80" viewBox="0 0 1520 80"><rect y="58" width="80" height="12"/><rect y="34" width="80" height="12"/><rect x="80" y="11" width="80" height="12"/><rect x="80" y="57" width="80" height="12"/><rect x="80" y="42" width="80" height="6"/><rect x="80" y="32" width="80" height="6"/><rect x="160" y="11" width="80" height="12"/><rect x="160" y="57" width="80" height="12"/><rect x="160" y="44" width="80" height="6"/><rect x="160" y="30" width="80" height="6"/><rect x="240" y="11" width="80" height="12"/><rect x="240" y="57" width="80" height="12"/><rect x="240" y="46" width="80" height="6"/><rect x="240" y="28" width="80" height="6"/><rect x="320" y="11" width="80" height="12"/><rect x="320" y="57" width="80" height="12"/><rect x="320" y="48" width="80" height="6"/><rect x="320" y="26" width="80" height="6"/><rect x="400" y="11" width="80" height="12"/><rect x="400" y="57" width="80" height="12"/><rect x="400" y="50" width="80" height="6"/><rect x="400" y="24" width="80" height="6"/><rect x="480" y="11" width="80" height="12"/><rect x="480" y="57" width="80" height="12"/><rect x="480" y="52" width="80" height="6"/><rect x="480" y="22" width="80" height="6"/><rect x="560" y="11" width="80" height="12"/><rect x="560" y="57" width="80" height="12"/><rect x="560" y="54" width="80" height="6"/><rect x="560" y="20" width="80" height="6"/><rect x="640" y="11" width="80" height="12"/><rect x="640" y="57" width="80" height="12"/><rect x="640" y="56" width="80" height="6"/><rect x="640" y="18" width="80" height="6"/><rect x="720" y="9" width="80" height="12"/><rect x="720" y="59" width="80" height="12"/><rect y="11" width="80" height="12"/><rect x="799" y="61" transform="matrix(-0.9848 -0.1737 0.1737 -0.9848 1653.5908 278.735)" width="80" height="12"/><rect x="799" y="7" transform="matrix(-0.9848 0.1736 -0.1736 -0.9848 1667.5027 -119.8378)" width="80" height="12"/><rect x="880" y="54.7" transform="matrix(-0.9397 -0.342 0.342 -0.9397 1763.7469 432.4178)" width="80" height="12"/><rect x="880" y="13.3" transform="matrix(-0.9397 0.342 -0.342 -0.9397 1791.1252 -277.1992)" width="80" height="12"/><polygon points="1033.1 80 959.3 37.4 965.7 26.3 1039.5 68.9 "/><rect x="1429.9" y="34.1" transform="matrix(-0.7071 -0.7071 0.7071 -0.7071 2499.062 1115.3146)" width="101.2" height="12"/><rect x="1430.1" y="34.1" transform="matrix(-0.7071 0.7071 -0.7071 -0.7071 2555.8325 -978.5009)" width="100.9" height="12"/><polygon points="959.5 42.7 1033.1 0 1039.5 11.1 965.9 53.8 "/><polygon points="1043.4 24.9 1120.3 70.4 1116.8 80.4 1039.8 34.9 "/><polygon points="1040 42.3 1116.7 -0.1 1120.5 9.6 1043.7 52.1 "/><rect x="1349.6" y="34.1" transform="matrix(-0.7071 -0.7071 0.7071 -0.7071 2361.9236 1058.5095)" width="101.2" height="12"/><rect x="1349.8" y="34.1" transform="matrix(-0.7071 0.7071 -0.7071 -0.7071 2418.6938 -921.696)" width="100.9" height="12"/><polygon points="1287.5 6.3 1359.6 71.5 1352.6 80.6 1280.5 15.4 "/><polygon points="1281.1 66.5 1353 0 1360 9.3 1288.1 75.8 "/><polygon points="1206.8 12.5 1280 71 1274.2 80.5 1201 22 "/><polygon points="1201 55.6 1274 0 1279.9 9.2 1206.9 64.8 "/><polygon points="1125.3 17.8 1200.8 70.1 1196.1 79.9 1120.7 27.7 "/><polygon points="1120.9 49.4 1195.8 0.1 1200.6 9.6 1125.7 59 "/></svg>
