<?xml version="1.0" encoding="utf-8"?>
<!-- Generator: Adobe Illustrator 16.0.0, SVG Export Plug-In . SVG Version: 6.00 Build 0)  -->
<!DOCTYPE svg PUBLIC "-//W3C//DTD SVG 1.1//EN" "http://www.w3.org/Graphics/SVG/1.1/DTD/svg11.dtd">
<svg version="1.1" id="Layer_1" xmlns="http://www.w3.org/2000/svg" xmlns:xlink="http://www.w3.org/1999/xlink" x="0px" y="0px"
	 width="56.667px" height="78px" viewBox="0 0 56.667 78" enable-background="new 0 0 56.667 78" xml:space="preserve">
<circle cx="29.517" cy="22.205" r="13.2"/>
<path d="M50.526,49.827c-1.377-2.899-3.233-5.13-5.575-6.69s-4.813-2.715-7.415-3.457c-2.603-0.742-5.391-1.115-8.362-1.115
	c-2.974,0-5.781,0.373-8.418,1.115c-2.64,0.742-5.129,1.896-7.471,3.457s-4.201,3.791-5.575,6.69
	c-1.376,2.898-2.063,6.317-2.063,10.258c0,0,0,12.582,0,13.421c0,0.838,0.83,0.838,0.83,0.838h6.338c0,0,0.821,0,0.821-0.838
	c0-0.171,0-18.7,0-18.7s0.144-0.168,0.382-0.168c0.238,0,0.393,0.168,0.393,0.168v18.7c0,0,0,0.838,0.839,0.838
	c0.249,0,0.693,0,0.693,0h26.35c0,0,0.574,0,0.697,0c0.835,0,0.835-0.838,0.835-0.838v-18.7c0,0,0.141-0.168,0.377-0.168
	c0.235,0,0.397,0.168,0.397,0.168v18.7c0,0,0,0.838,0.832,0.838c0.119,0,5.482,0,6.32,0c0.837,0,0.837-0.838,0.837-0.838V60.085
	C52.588,56.145,51.9,52.726,50.526,49.827z"/>
<path fill="#6F89C1" d="M49.625,44.577c-1.376-2.899-3.233-5.129-5.575-6.69c-2.341-1.561-4.813-2.714-7.414-3.457
	c-2.604-0.742-5.391-1.115-8.363-1.115c-2.974,0-5.78,0.373-8.418,1.115c-2.64,0.742-5.129,1.896-7.471,3.457
	c-2.342,1.561-4.201,3.791-5.575,6.69c-1.376,2.898-2.063,6.317-2.063,10.258c0,0,0,12.582,0,13.421c0,0.838,0.83,0.838,0.83,0.838
	h6.339c0,0,0.821,0,0.821-0.838c0-0.171,0-18.7,0-18.7s0.144-0.168,0.382-0.168c0.239,0,0.393,0.168,0.393,0.168v18.7
	c0,0,0,0.838,0.839,0.838c0.249,0,0.693,0,0.693,0h26.349c0,0,0.574,0,0.698,0c0.834,0,0.834-0.838,0.834-0.838v-18.7
	c0,0,0.142-0.168,0.377-0.168c0.236,0,0.397,0.168,0.397,0.168v18.7c0,0,0,0.838,0.832,0.838c0.12,0,5.482,0,6.32,0
	s0.838-0.838,0.838-0.838V54.835C51.689,50.895,51,47.476,49.625,44.577z"/>
<circle fill="#6F89C1" cx="28.218" cy="17.455" r="13.2"/>
</svg>
