<?xml version="1.0" encoding="utf-8"?>
<!-- Generator: Adobe Illustrator 16.0.0, SVG Export Plug-In . SVG Version: 6.00 Build 0)  -->
<!DOCTYPE svg PUBLIC "-//W3C//DTD SVG 1.1//EN" "http://www.w3.org/Graphics/SVG/1.1/DTD/svg11.dtd">
<svg version="1.1" id="Layer_1" xmlns="http://www.w3.org/2000/svg" xmlns:xlink="http://www.w3.org/1999/xlink" x="0px" y="0px"
	 width="300px" height="300px" viewBox="0 0 300 300" enable-background="new 0 0 300 300" xml:space="preserve">
<path fill="#4063AD" d="M232.32,113.367c-3.032-10.817-4.551-19.427-4.551-25.827c0-12.142,11.006-41.935,22.06-47.673l-15-16.555
	c-41.685,41.685-84.33,0-84.33,0s-42.809,41.519-84.328,0c-1.087,0-15,16.555-15,16.555c11.053,5.738,22.06,35.531,22.06,47.673
	c0,6.4-1.52,15.01-4.552,25.827l-5.851,18.21c-7.589,23.617-11.378,40.942-11.378,51.981c0,19.203,5.901,27.316,17.716,39.129
	c11.81,11.805,81.333,54,81.333,54s69.524-42.195,81.334-54c11.814-11.813,17.717-19.926,17.717-39.129
	c0-11.039-3.79-28.364-11.378-51.981L232.32,113.367z M183.882,189.824L150.5,175.381l-33.383,14.443l2.436-36.927l-23.066-26.569
	l34.887-9.811L150.5,87.085l19.126,29.433l34.888,9.811l-23.066,26.569L183.882,189.824z"/>
</svg>
