<?xml version="1.0" encoding="utf-8"?>
<!-- Generator: Adobe Illustrator 16.0.0, SVG Export Plug-In . SVG Version: 6.00 Build 0)  -->
<!DOCTYPE svg PUBLIC "-//W3C//DTD SVG 1.1//EN" "http://www.w3.org/Graphics/SVG/1.1/DTD/svg11.dtd">
<svg version="1.1" id="Layer_1" xmlns="http://www.w3.org/2000/svg" xmlns:xlink="http://www.w3.org/1999/xlink" x="0px" y="0px"
	 width="41.875px" height="75.125px" viewBox="234.75 213.125 41.875 75.125" enable-background="new 234.75 213.125 41.875 75.125"
	 xml:space="preserve">
<path d="M273.773,220.52h-6.267h-7.4c0,0-0.138,4.28,3.81,4.28c3.048,0,3.529,3.42,3.591,4.979v14.56
	c0,5.095-0.15,7.642-11.321,7.643c-11.17-0.001-11.32-2.547-11.32-7.643v-14.56c0.062-1.559,0.542-4.979,3.591-4.979
	c3.946,0,3.81-4.28,3.81-4.28h-7.4h-6.268h-0.002v24.412c0,7.867,4.43,12.314,13.288,13.345c-0.303,1.626-0.104,3.224,0.602,4.794
	c0.71,1.677,1.731,3.089,3.062,4.234c1.328,1.146,2.668,2.237,4.015,3.271c1.347,1.035,2.39,2.158,3.128,3.372
	c0.738,1.215,0.88,2.447,0.424,3.698c-0.456,1.25-1.336,2.075-2.639,2.474c-1.304,0.399-2.768,0.302-4.394-0.291
	s-3.079-1.71-3.881-2.877c-0.063-0.093-0.143-0.155-0.232-0.197c0.286-0.553,0.503-1.153,0.634-1.794
	c0.753-3.713-1.646-7.334-5.359-8.087c-3.713-0.754-7.334,1.646-8.087,5.358s1.646,7.334,5.358,8.087
	c0.95,0.193,1.894,0.179,2.785-0.011c1.479,2.098,3.852,3.746,7.125,4.939c3.648,1.33,6.752,1.435,9.311,0.313
	s4.268-2.86,5.127-5.217c0.858-2.354,1.022-4.456,0.491-6.304c-0.53-1.847-1.429-3.402-2.691-4.666
	c-1.264-1.265-2.572-2.438-3.924-3.521c-1.354-1.083-2.523-2.184-3.51-3.299c-0.987-1.115-1.274-2.236-0.864-3.362
	c0.101-0.276,0.233-0.528,0.391-0.761c10.015-0.635,15.022-5.135,15.022-13.499V220.52H273.773z"/>
<g>
	<path fill="#F25767" d="M272.724,215.87h-6.267h-7.4c0,0-0.138,4.28,3.81,4.28c3.048,0,3.529,3.42,3.591,4.979v14.559
		c0,5.096-0.15,7.643-11.321,7.643c-11.17,0-11.32-2.547-11.32-7.643v-14.559c0.061-1.559,0.542-4.979,3.59-4.979
		c3.947,0,3.809-4.28,3.809-4.28h-7.399h-6.268h-0.002v24.411c0,7.867,4.43,12.314,13.289,13.345
		c-0.303,1.626-0.104,3.224,0.602,4.794c0.71,1.678,1.73,3.089,3.062,4.235c1.328,1.146,2.667,2.236,4.015,3.271
		c1.347,1.035,2.389,2.159,3.128,3.373c0.737,1.214,0.88,2.446,0.424,3.697c-0.456,1.25-1.336,2.075-2.639,2.474
		c-1.304,0.399-2.768,0.303-4.394-0.29c-1.626-0.594-3.079-1.711-3.881-2.878c-0.063-0.092-0.143-0.155-0.233-0.196
		c0.287-0.553,0.504-1.153,0.634-1.795c0.754-3.713-1.645-7.333-5.358-8.087c-3.713-0.753-7.333,1.646-8.087,5.359
		c-0.753,3.712,1.646,7.333,5.358,8.087c0.95,0.192,1.894,0.178,2.785-0.012c1.479,2.099,3.852,3.746,7.125,4.939
		c3.648,1.33,6.752,1.435,9.311,0.313c2.559-1.122,4.268-2.861,5.126-5.218c0.859-2.354,1.023-4.456,0.492-6.303
		c-0.53-1.848-1.429-3.402-2.691-4.667c-1.264-1.264-2.572-2.437-3.924-3.521c-1.354-1.083-2.523-2.183-3.51-3.299
		c-0.987-1.115-1.274-2.236-0.864-3.362c0.101-0.276,0.233-0.527,0.391-0.76c10.015-0.636,15.022-5.135,15.022-13.5V215.87H272.724z
		 M243.948,273.285c-2.396-0.485-3.945-2.822-3.458-5.219s2.823-3.945,5.22-3.459c2.396,0.486,3.945,2.823,3.458,5.22
		C248.681,272.224,246.344,273.771,243.948,273.285z"/>
	<circle fill="#F25767" cx="244.828" cy="268.947" r="2.592"/>
</g>
</svg>
