<?xml version="1.0" encoding="UTF-8"?>
<!DOCTYPE svg  PUBLIC '-//W3C//DTD SVG 1.1//EN'  'http://www.w3.org/Graphics/SVG/1.1/DTD/svg11.dtd'>
<svg enable-background="new 0 0 648 432" version="1.1" viewBox="0 0 648 432" xml:space="preserve" xmlns="http://www.w3.org/2000/svg">
<g fill="#fff">
	<path d="m243.68 283.14h-13.182c-3.444-8.758-6.086-14.163-7.926-16.217-1.841-2.053-4.81-3.08-8.906-3.08-1.722 0-3.37 0.013-4.943 0.037 0 6.358 0.133 12.778 0.4 19.26h-12.379c0.385-7.471 0.579-15.895 0.579-25.271 0-9.005-0.193-16.687-0.579-23.045h7.704c0.891 0 2.753-0.037 5.589-0.111 2.834-0.074 5.455-0.111 7.86-0.111 13.626 0 20.44 3.885 20.44 11.652 0 6.16-3.89 10.453-11.667 12.877v0.557c2.999 0.693 5.625 2.642 7.882 5.845 2.254 3.202 5.298 9.071 9.128 17.607zm-16.7-34.141c0-4.923-3.801-7.385-11.4-7.385-2.791 0-5.254 0.174-7.392 0.52 0.327 3.835 0.49 8.832 0.49 14.992 1.632 0.05 3.013 0.074 4.142 0.074 9.44 0 14.16-2.733 14.16-8.201z"/>
	<path d="m290.15 274.98l-0.356 8.164h-37.896c0.385-7.471 0.579-15.895 0.579-25.271 0-9.005-0.193-16.687-0.579-23.045h36.159l-0.49 8.127c-8.906-0.396-16.982-0.594-24.225-0.594 0.296 3.439 0.445 7.496 0.445 12.172 6.205 0 12.84-0.136 19.906-0.408v7.756c-6.947-0.247-13.582-0.371-19.906-0.371 0 5.022 0.118 9.723 0.356 14.102 8.134-2e-3 16.803-0.212 26.007-0.632z"/>
	<path d="m338.66 269.97c0 9.674-8.342 14.51-25.026 14.51-5.67 0-10.94-0.569-15.809-1.707l2.182-8.275c4.81 1.386 9.352 2.078 13.626 2.078 4.75 0 8.164-0.383 10.242-1.15s3.117-2.053 3.117-3.859c0-1.88-0.979-3.463-2.938-4.75-1.692-1.138-5.122-2.622-10.287-4.453-4.691-1.682-8.179-3.513-10.465-5.492-2.88-2.498-4.319-5.578-4.319-9.24 0-4.255 1.893-7.582 5.678-9.982 3.785-2.399 9.225-3.6 16.32-3.6 5.818 0 10.702 0.408 14.651 1.225l-1.648 8.238c-4.008-1.212-8.342-1.818-13.003-1.818-7.006 0-10.509 1.559-10.509 4.676 0 1.658 0.816 3.006 2.449 4.045 1.425 0.891 4.527 2.141 9.307 3.748 5.076 1.707 8.876 3.588 11.4 5.641 3.355 2.743 5.032 6.133 5.032 10.165z"/>
	<path d="m391.63 247.48c0 5.913-2.635 10.279-7.904 13.1s-11.733 4.23-19.393 4.23c-1.396 0-2.391-0.024-2.984-0.074 0 4.651 0.163 10.787 0.49 18.406h-12.514c0.386-7.149 0.579-15.573 0.579-25.271 0-8.906-0.193-16.588-0.579-23.045h7.749c1.098 0 3.206-0.037 6.323-0.111s5.818-0.111 8.104-0.111c5.641 0 10.405 1.064 14.295 3.191 3.89 2.128 5.834 5.356 5.834 9.685zm-11.488 2.042c0-5.294-4.216-7.941-12.647-7.941-2.108 0-4.335 0.186-6.68 0.557 0.326 4.676 0.49 9.971 0.49 15.883 0.741 0.05 1.603 0.074 2.583 0.074 10.835-1e-3 16.254-2.859 16.254-8.573z"/>
	<path d="m454.53 258.09c0 7.596-2.791 13.892-8.372 18.889-5.581 4.998-12.483 7.496-20.707 7.496-7.837 0-14.398-2.294-19.683-6.884-5.284-4.589-7.927-10.421-7.927-17.497 0-7.595 2.79-13.891 8.372-18.889 5.581-4.997 12.483-7.496 20.707-7.496 7.838 0 14.398 2.289 19.683 6.865 5.285 4.577 7.927 10.416 7.927 17.516zm-12.291 1.076c0-5.17-1.588-9.363-4.765-12.58-3.177-3.216-7.096-4.824-11.756-4.824-4.335 0-8.016 1.621-11.044 4.861-3.028 3.241-4.542 7.336-4.542 12.283 0 5.146 1.596 9.333 4.787 12.562 3.19 3.229 7.103 4.843 11.733 4.843 4.335 0 8.016-1.626 11.044-4.88 3.03-3.253 4.543-7.341 4.543-12.265z"/>
	<path d="m512.97 283.14h-10.999c0-1.014-4.082-6.37-12.246-16.068-8.55-10.217-13.419-17.206-14.606-20.967h-0.712c0.741 5.418 1.113 10.316 1.113 14.695 0 6.111 0.207 13.558 0.623 22.34h-10.955c0.445-7.669 0.668-16.093 0.668-25.271 0-9.029-0.223-16.711-0.668-23.045h13.227c0 1.312 3.666 6.544 10.999 15.697 7.808 9.723 12.29 16.316 13.448 19.779h0.668c-0.713-5.517-1.068-10.465-1.068-14.844 0-6.704-0.208-13.582-0.624-20.633h11.133c-0.416 6.136-0.623 13.817-0.623 23.045-1e-3 9.303 0.206 17.727 0.622 25.272z"/>
	<path d="m564.47 269.97c0 9.674-8.342 14.51-25.026 14.51-5.671 0-10.939-0.569-15.809-1.707l2.183-8.275c4.809 1.386 9.352 2.078 13.626 2.078 4.75 0 8.164-0.383 10.242-1.15s3.117-2.053 3.117-3.859c0-1.88-0.979-3.463-2.938-4.75-1.692-1.138-5.121-2.622-10.287-4.453-4.691-1.682-8.179-3.513-10.465-5.492-2.88-2.498-4.319-5.578-4.319-9.24 0-4.255 1.893-7.582 5.678-9.982 3.785-2.399 9.225-3.6 16.32-3.6 5.818 0 10.702 0.408 14.651 1.225l-1.648 8.238c-4.008-1.212-8.342-1.818-13.003-1.818-7.007 0-10.509 1.559-10.509 4.676 0 1.658 0.815 3.006 2.449 4.045 1.425 0.891 4.526 2.141 9.307 3.748 5.076 1.707 8.876 3.588 11.4 5.641 3.354 2.743 5.031 6.133 5.031 10.165z"/>
	<path d="m613.38 274.98l-0.356 8.164h-37.896c0.386-7.471 0.579-15.895 0.579-25.271 0-9.005-0.193-16.687-0.579-23.045h36.16l-0.49 8.127c-8.906-0.396-16.981-0.594-24.225-0.594 0.296 3.439 0.445 7.496 0.445 12.172 6.204 0 12.839-0.136 19.905-0.408v7.756c-6.947-0.247-13.582-0.371-19.905-0.371 0 5.022 0.118 9.723 0.355 14.102 8.135-2e-3 16.804-0.212 26.007-0.632z"/>
</g>
	<linearGradient id="e" x1="70.707" x2="70.707" y1="143.5" y2="124.97" gradientUnits="userSpaceOnUse">
		<stop stop-color="#fff" offset="0"/>
		<stop offset="1"/>
	</linearGradient>
	<path d="m104 150.43l-0.451 11.548c-8.594-0.537-16.693-0.806-24.299-0.806-0.086 6.768-0.129 14.306-0.129 22.612 0 12.891 0.236 25.083 0.709 36.577h-18.047c0.558-11.387 0.838-23.579 0.838-36.577 0-8.164-0.086-15.701-0.258-22.612-6.059 0-14.373 0.287-24.943 0.859l0.516-11.602h66.064z" fill="url(#e)"/>
	<linearGradient id="d" x1="230.73" x2="230.73" y1="143.5" y2="124.97" gradientUnits="userSpaceOnUse">
		<stop stop-color="#fff" offset="0"/>
		<stop offset="1"/>
	</linearGradient>
	<path d="m264.02 150.43l-0.451 11.548c-8.594-0.537-16.693-0.806-24.299-0.806-0.086 6.768-0.129 14.306-0.129 22.612 0 12.891 0.236 25.083 0.709 36.577h-18.047c0.558-11.387 0.838-23.579 0.838-36.577 0-8.164-0.086-15.701-0.258-22.612-6.059 0-14.373 0.287-24.943 0.859l0.516-11.602h66.064z" fill="url(#d)"/>
	<linearGradient id="c" x1="305.55" x2="305.55" y1="143.5" y2="124.97" gradientUnits="userSpaceOnUse">
		<stop stop-color="#fff" offset="0"/>
		<stop offset="1"/>
	</linearGradient>
	<path d="m346.42 220.36h-20.624c0-2.363-1.956-9.059-5.866-20.088h-29.777c-4.04 10.85-6.059 17.546-6.059 20.088h-19.4c0-1.396 5.016-12.854 15.05-34.375 10.033-21.52 15.05-33.372 15.05-35.557h24.363c0 2.041 4.544 13.723 13.631 35.046 9.088 21.324 13.632 32.953 13.632 34.886zm-29.777-30.346c-7.348-18.477-11.021-28.467-11.021-29.971h-1.031c0 1.396-3.803 11.387-11.408 29.971h23.46z" fill="url(#c)"/>
	<linearGradient id="b" x1="384.63" x2="384.63" y1="143.5" y2="124.97" gradientUnits="userSpaceOnUse">
		<stop stop-color="#fff" offset="0"/>
		<stop offset="1"/>
	</linearGradient>
	<path d="m411.67 208.66l-0.516 11.709h-53.561c0.516-9.703 0.773-21.896 0.773-36.577 0-13.463-0.258-24.581-0.773-33.354h18.111c-0.516 8.129-0.773 19.247-0.773 33.354 0 10.778-0.28 19.336-0.838 25.674 11.86 0 24.386-0.269 37.577-0.806z" fill="url(#b)"/>
	<linearGradient id="a" x1="150.88" x2="150.88" y1="272.15" y2="139.12" gradientUnits="userSpaceOnUse">
		<stop stop-color="#4064AD" offset="0"/>
		<stop stop-color="#3E5992" offset=".1775"/>
		<stop stop-color="#2F3C59" offset=".5647"/>
		<stop stop-color="#0F151D" offset="1"/>
	</linearGradient>
	<path d="m149.82 282.57c-0.439-0.434-43.946-43.989-43.946-96.866 0-24.813 20.187-45 45-45s45 20.187 45 45c0 52.877-43.507 96.433-43.946 96.866l-1.054 1.04-1.054-1.04z" fill="url(#a)"/>
	<path d="m150.88 142.2c24.024 0 43.5 19.476 43.5 43.5 0 52.861-43.5 95.799-43.5 95.799s-43.5-42.938-43.5-95.799c0-24.024 19.476-43.5 43.5-43.5m0-3c-25.64 0-46.5 20.86-46.5 46.5 0 28.02 12.077 53.16 22.208 69.316 10.935 17.438 21.73 28.169 22.184 28.617l2.107 2.08 2.107-2.08c0.454-0.448 11.25-11.18 22.184-28.617 10.131-16.156 22.208-41.297 22.208-69.316 2e-3 -25.64-20.858-46.5-46.498-46.5z" fill="#fff"/>
<circle cx="150.88" cy="185.7" r="34.75" fill="#fff"/>
<polygon points="143.87 207.58 157.88 207.58 157.88 192.7 172.75 192.7 172.75 178.7 157.9 178.73 157.88 163.83 143.87 163.83 143.87 178.7 129 178.7 129 192.7 143.87 192.7" fill="#ED1E33"/>
</svg>
