<?xml version="1.0" encoding="utf-8"?>
<!-- Generator: Adobe Illustrator 16.0.0, SVG Export Plug-In . SVG Version: 6.00 Build 0)  -->
<!DOCTYPE svg PUBLIC "-//W3C//DTD SVG 1.1//EN" "http://www.w3.org/Graphics/SVG/1.1/DTD/svg11.dtd">
<svg version="1.1" id="Layer_1" xmlns="http://www.w3.org/2000/svg" xmlns:xlink="http://www.w3.org/1999/xlink" x="0px" y="0px"
	 width="800px" height="800px" viewBox="0 0 800 800" enable-background="new 0 0 800 800" xml:space="preserve">
<g>
	<path fill-rule="evenodd" clip-rule="evenodd" d="M789.815,660.38H652.978L486.93,525.413v-82.659h42.274
		c60.521-0.082,109.566-49.179,109.566-109.715c0-60.554-49.063-109.667-109.584-109.732h-64.063V660.38h-83.686V223.307H115.163
		L12.186,139.621h516.87c6.557,0,13.048,0.331,19.438,0.959c0.034,0,0.051,0.017,0.085,0.017c0.512,0.066,1.024,0.133,1.555,0.199
		c0.149,0.017,0.281,0.033,0.414,0.049c22.718,2.517,44.262,8.975,63.933,18.646c1.258,0.612,2.517,1.258,3.774,1.904
		c0.166,0.066,0.331,0.166,0.498,0.265c1.176,0.612,2.333,1.225,3.492,1.871c1.276,0.695,2.534,1.408,3.792,2.136
		c2.616,1.523,5.2,3.096,7.733,4.735c3.759,2.417,7.435,4.967,10.995,7.633c1.489,1.109,2.946,2.236,4.405,3.378
		c0.977,0.778,1.937,1.556,2.897,2.351c0.414,0.332,0.828,0.679,1.242,1.027h0.016c2.715,2.302,5.382,4.669,7.964,7.104
		c37.92,35.319,61.613,85.738,61.613,141.707c0,79.53-47.87,147.882-116.37,177.787L789.815,660.38z"/>
	<path fill-rule="evenodd" clip-rule="evenodd" d="M661.289,191.895c-2.582-2.435-5.249-4.802-7.964-7.104
		c1.375,1.159,2.731,2.318,4.073,3.51c0.646,0.58,1.309,1.176,1.953,1.771c0.315,0.298,0.646,0.596,0.978,0.911
		C660.66,191.282,660.976,191.597,661.289,191.895z"/>
	<path fill-rule="evenodd" clip-rule="evenodd" d="M672.5,203.32c1.225,1.325,2.384,2.65,3.527,4.007
		C674.884,205.97,673.708,204.628,672.5,203.32z"/>
	<path fill-rule="evenodd" clip-rule="evenodd" d="M548.493,140.58c-6.39-0.629-12.881-0.959-19.438-0.959h9.569
		C541.44,139.818,544.752,140.134,548.493,140.58z"/>
	<path fill-rule="evenodd" clip-rule="evenodd" d="M644.765,178.035c-3.561-2.666-7.236-5.215-10.995-7.633
		C637.528,172.804,641.188,175.353,644.765,178.035z"/>
	<path fill-rule="evenodd" clip-rule="evenodd" d="M661.289,191.895c-2.582-2.435-5.249-4.802-7.964-7.104
		c1.375,1.159,2.731,2.318,4.073,3.51c0.646,0.58,1.309,1.176,1.953,1.771c0.315,0.298,0.646,0.596,0.978,0.911
		C660.66,191.282,660.976,191.597,661.289,191.895z"/>
	<path fill-rule="evenodd" clip-rule="evenodd" d="M672.5,203.32c1.225,1.325,2.384,2.65,3.527,4.007
		C674.884,205.97,673.708,204.628,672.5,203.32z"/>
	<polygon points="358.521,246.239 358.521,329.942 246.372,329.942 143.376,246.239 	"/>
	<polygon points="358.521,352.858 358.521,421.079 354.479,417.8 354.001,417.42 274.818,352.858 	"/>
	<path fill-rule="evenodd" clip-rule="evenodd" d="M614.479,159.491c-19.671-9.671-41.215-16.128-63.933-18.646
		c-0.133-0.016-0.265-0.033-0.414-0.049c-0.53-0.066-1.043-0.132-1.555-0.199C572.041,142.948,594.262,149.489,614.479,159.491z"/>
</g>
</svg>
