<?xml version="1.0" encoding="utf-8"?>
<!-- Generator: Adobe Illustrator 22.0.0, SVG Export Plug-In . SVG Version: 6.00 Build 0)  -->
<svg version="1.1" id="Layer_1" xmlns="http://www.w3.org/2000/svg" xmlns:xlink="http://www.w3.org/1999/xlink" x="0px" y="0px"
	 viewBox="0 0 800 800" style="enable-background:new 0 0 800 800;" xml:space="preserve">
<style type="text/css">
	.st0{fill:#FFFFFF;}
</style>
<g>
	<path class="st0" d="M789.8,660.4H653l-166-135v-82.7h42.3c60.5-0.1,109.6-49.2,109.6-109.7c0-60.6-49.1-109.7-109.6-109.7h-64.1
		v437.1h-83.7V223.3H115.2l-103-83.7h516.9c6.6,0,13,0.3,19.4,1c0,0,0.1,0,0.1,0c0.5,0.1,1,0.1,1.6,0.2c0.1,0,0.3,0,0.4,0
		c22.7,2.5,44.3,9,63.9,18.6c1.3,0.6,2.5,1.3,3.8,1.9c0.2,0.1,0.3,0.2,0.5,0.3c1.2,0.6,2.3,1.2,3.5,1.9c1.3,0.7,2.5,1.4,3.8,2.1
		c2.6,1.5,5.2,3.1,7.7,4.7c3.8,2.4,7.4,5,11,7.6c1.5,1.1,2.9,2.2,4.4,3.4c1,0.8,1.9,1.6,2.9,2.4c0.4,0.3,0.8,0.7,1.2,1h0
		c2.7,2.3,5.4,4.7,8,7.1c37.9,35.3,61.6,85.7,61.6,141.7c0,79.5-47.9,147.9-116.4,177.8L789.8,660.4z"/>
	<path class="st0" d="M661.3,191.9c-2.6-2.4-5.2-4.8-8-7.1c1.4,1.2,2.7,2.3,4.1,3.5c0.6,0.6,1.3,1.2,2,1.8c0.3,0.3,0.6,0.6,1,0.9
		C660.7,191.3,661,191.6,661.3,191.9z"/>
	<path class="st0" d="M672.5,203.3c1.2,1.3,2.4,2.6,3.5,4C674.9,206,673.7,204.6,672.5,203.3z"/>
	<path class="st0" d="M548.5,140.6c-6.4-0.6-12.9-1-19.4-1h9.6C541.4,139.8,544.8,140.1,548.5,140.6z"/>
	<path class="st0" d="M644.8,178c-3.6-2.7-7.2-5.2-11-7.6C637.5,172.8,641.2,175.4,644.8,178z"/>
	<path class="st0" d="M661.3,191.9c-2.6-2.4-5.2-4.8-8-7.1c1.4,1.2,2.7,2.3,4.1,3.5c0.6,0.6,1.3,1.2,2,1.8c0.3,0.3,0.6,0.6,1,0.9
		C660.7,191.3,661,191.6,661.3,191.9z"/>
	<path class="st0" d="M672.5,203.3c1.2,1.3,2.4,2.6,3.5,4C674.9,206,673.7,204.6,672.5,203.3z"/>
	<polygon class="st0" points="358.5,246.2 358.5,329.9 246.4,329.9 143.4,246.2 	"/>
	<polygon class="st0" points="358.5,352.9 358.5,421.1 354.5,417.8 354,417.4 274.8,352.9 	"/>
	<path class="st0" d="M614.5,159.5c-19.7-9.7-41.2-16.1-63.9-18.6c-0.1,0-0.3,0-0.4,0c-0.5-0.1-1-0.1-1.6-0.2
		C572,142.9,594.3,149.5,614.5,159.5z"/>
</g>
</svg>
