<?xml version="1.0" encoding="utf-8"?>
<!-- Generator: Adobe Illustrator 16.0.0, SVG Export Plug-In . SVG Version: 6.00 Build 0)  -->
<!DOCTYPE svg PUBLIC "-//W3C//DTD SVG 1.1//EN" "http://www.w3.org/Graphics/SVG/1.1/DTD/svg11.dtd">
<svg version="1.1" xmlns="http://www.w3.org/2000/svg" xmlns:xlink="http://www.w3.org/1999/xlink" x="0px" y="0px" width="300px"
	 height="300px" viewBox="0 0 300 300" enable-background="new 0 0 300 300" xml:space="preserve">
<g id="Layer_1">
	<path fill="#ED2235" d="M218.166,113.046l-68.16,68.16l68.16,68.172l68.159-68.172L218.166,113.046z M205.9,207.652
		c-6.432-6.443-8.52-13.787-5.544-27.012c0.84,1.344,4.163,8.916,8.688,5.52c4.764-3.588-3.384-6.563-3.384-14.207
		c0-7.633,13.104-23.556,13.728-25.081c0,0,3.396,7.452,3.396,11.844s-9.516,9.793-4.058,13.896
		c5.449,4.104,9.133-7.885,9.133-7.885s4.272,4.957,4.272,13.26c0,8.316-9.181,11.148-3.732,15.252
		c5.46,4.104,8.808-6.432,8.808-6.432s2.496,3.084,2.496,8.678C239.704,205.266,220.756,222.51,205.9,207.652z"/>
	<path fill="#EBE72A" d="M150.006,44.874l-68.172,68.172l68.172,68.16l68.16-68.16L150.006,44.874z M136.985,152.082l17.354-34.704
		l-25.541,8.189L163.014,74l-17.351,34.703l25.538-8.187L136.985,152.082z"/>
	<path fill="#3F51A3" d="M81.833,113.046l-68.16,68.16l68.16,68.172l68.172-68.172L81.833,113.046z M81.84,213.322
		c-11.96,0-21.656-9.697-21.656-21.656c0-11.961,21.656-45.38,21.656-45.38s21.656,33.419,21.656,45.38
		C103.496,203.625,93.8,213.322,81.84,213.322z"/>
</g>
<g id="Layer_2">
</g>
</svg>
