<?xml version="1.0" encoding="utf-8"?>
<!-- Generator: Adobe Illustrator 22.0.0, SVG Export Plug-In . SVG Version: 6.00 Build 0)  -->
<svg version="1.1" id="Layer_1" xmlns="http://www.w3.org/2000/svg" xmlns:xlink="http://www.w3.org/1999/xlink" x="0px" y="0px"
	 viewBox="0 0 300 300" style="enable-background:new 0 0 300 300;" xml:space="preserve">
<style type="text/css">
	.st0{fill:#EAEF29;}
	.st1{fill:#EBE72A;}
</style>
<g id="Layer_1_1_">
	<path class="st0" d="M218.2,113L150,181.2l68.2,68.2l68.2-68.2L218.2,113z M205.9,207.7c-6.4-6.4-8.5-13.8-5.5-27
		c0.8,1.3,4.2,8.9,8.7,5.5c4.8-3.6-3.4-6.6-3.4-14.2c0-7.6,13.1-23.6,13.7-25.1c0,0,3.4,7.5,3.4,11.8s-9.5,9.8-4.1,13.9
		c5.4,4.1,9.1-7.9,9.1-7.9s4.3,5,4.3,13.3c0,8.3-9.2,11.1-3.7,15.3c5.5,4.1,8.8-6.4,8.8-6.4s2.5,3.1,2.5,8.7
		C239.7,205.3,220.8,222.5,205.9,207.7z"/>
	<path class="st1" d="M150,44.9L81.8,113l68.2,68.2l68.2-68.2L150,44.9z M137,152.1l17.4-34.7l-25.5,8.2L163,74l-17.4,34.7l25.5-8.2
		L137,152.1z"/>
	<path class="st0" d="M81.8,113l-68.2,68.2l68.2,68.2l68.2-68.2L81.8,113z M81.8,213.3c-12,0-21.7-9.7-21.7-21.7
		c0-12,21.7-45.4,21.7-45.4s21.7,33.4,21.7,45.4C103.5,203.6,93.8,213.3,81.8,213.3z"/>
</g>
<g id="Layer_2_1_">
</g>
</svg>
